<svg xmlns="http://www.w3.org/2000/svg" x="0px" y="0px"  viewBox="0 0 16 16">
<path fill="#f78f8f" d="M7 2H8V5H7zM9 1H10V5H9zM11 2H12V5H11zM5 1H6V5H5z"></path><path fill="#8b75a1" d="M13.4 13.1H12l.8 1.6c.1.2.3.4.6.4l0 0c.5 0 .8-.5.6-.9L13.4 13.1zM2.6 13.1H4l-.8 1.6C3.1 14.9 2.9 15 2.6 15l0 0c-.5 0-.8-.5-.6-.9L2.6 13.1z"></path><path fill="#dbf2ff" d="M4.6,13.5c-1.2,0-2.3-0.9-2.5-2.1L1.5,7.5h13v0l-0.6,3.8c-0.2,1.2-1.2,2.1-2.5,2.1L4.6,13.5 L4.6,13.5z"></path><path fill="#7496c4" d="M13.9,8l-0.5,3.3c-0.2,1-1,1.7-2,1.7H4.6c-1,0-1.8-0.7-2-1.7L2.1,8H13.9 M15,7H1v0.5l0,0l0.6,3.9 c0.2,1.5,1.5,2.5,3,2.5h6.9c1.5,0,2.7-1.1,3-2.5L15,7.5V7L15,7z"></path><g><path fill="#dbf2ff" d="M8,8.5C5.9,8.5,2.9,8,1.3,7.7c-0.5-0.1-0.8-0.5-0.8-1c0-0.5,0.4-1,1-1c0.1,0,0.1,0,0.2,0 C3.5,6.1,6.1,6.5,8,6.5s4.5-0.4,6.4-0.7c0.1,0,0.1,0,0.2,0c0.5,0,1,0.4,1,1c0,0.5-0.3,0.9-0.8,1C13.1,8,10.1,8.5,8,8.5z"></path><path fill="#7496c4" d="M14.5,6.3c0.3,0,0.5,0.2,0.5,0.5c0,0.2-0.2,0.4-0.4,0.5C13,7.5,10.1,8,8,8S3,7.5,1.4,7.2 C1.2,7.2,1,7,1,6.8c0-0.3,0.2-0.5,0.5-0.5c0,0,0.1,0,0.1,0C3.5,6.6,6.1,7,8,7S12.5,6.6,14.5,6.3C14.5,6.3,14.5,6.3,14.5,6.3 M14.5,5.3c-0.1,0-0.2,0-0.2,0C12.5,5.6,9.9,6,8,6S3.5,5.6,1.7,5.3c-0.1,0-0.2,0-0.2,0C0.7,5.3,0,5.9,0,6.8c0,0.7,0.5,1.3,1.2,1.5 C2.9,8.5,5.9,9,8,9s5.1-0.5,6.8-0.8C15.5,8.1,16,7.5,16,6.8C16,5.9,15.3,5.3,14.5,5.3L14.5,5.3z"></path></g>
</svg>