<svg xmlns="http://www.w3.org/2000/svg" x="0px" y="0px" viewBox="0,0,256,256">
<g fill="none" fill-rule="nonzero" stroke="none" stroke-width="1" stroke-linecap="butt" stroke-linejoin="miter" stroke-miterlimit="10" stroke-dasharray="" stroke-dashoffset="0" font-family="none" font-weight="none" font-size="none" text-anchor="none" style="mix-blend-mode: normal"><g transform="scale(5.33333,5.33333)"><path d="M38,5l-24,-0.002c-2.207,0 -4.816,1.068 -4.984,6.002h-0.016c0,0 0,19.824 0,28l0.018,-0.054c0.182,3.639 2.547,4.054 3.589,4.054h23.393c0.188,0 0.5,0 1,0c2,0 2,-2 2,-2v-5.998v-29.002c0,-0.553 -0.447,-1 -1,-1z" fill="#c25d57"></path><path d="M36,36h-23.393c-1.332,0 -1.607,1.119 -1.607,2.5c0,1.382 0.275,2.502 1.607,2.502l23.393,-0.002z" fill="#ffe0b2"></path><path d="M12.607,36c-1.167,0 -1.522,0.858 -1.593,2h24.986v-2z" fill="#e0b990"></path><path d="M14,10.998h21v5h-21z" fill="#ffecb3"></path><path d="M38,36h-2v7c0.188,0 0.5,0 1,0c2,0 2,-2 2,-2v-5.998c0,0.551 -0.447,0.998 -1,0.998z" fill="#c25d57"></path></g></g>
</svg>