<svg xmlns="http://www.w3.org/2000/svg" x="0px" y="0px" viewBox="0,0,256,256">
<g fill="none" fill-rule="nonzero" stroke="none" stroke-width="1" stroke-linecap="butt" stroke-linejoin="miter" stroke-miterlimit="10" stroke-dasharray="" stroke-dashoffset="0" font-family="none" font-weight="none" font-size="none" text-anchor="none" style="mix-blend-mode: normal"><g transform="scale(4.83019,4.83019)"><path d="M13.49914,46.7582c0.07903,0 0.15806,-0.01318 0.23709,-0.03955c-3.00319,1.09331 -6.98119,2.13387 -7.66613,2.13391c-1.21185,-0.00004 -2.14051,-1.12623 -1.88364,-2.33145c0.53347,-2.45663 1.23818,-4.90007 2.0944,-7.25784c-0.02637,0.07903 -0.03955,0.15806 -0.03955,0.23709c0.00004,3.99115 3.25351,7.2578 7.25784,7.25785z" fill="#1c6fd2"></path><path d="M39.50083,6.24081c-0.07903,0 -0.15806,0.01319 -0.23705,0.03951c3.00319,-1.09331 6.98119,-2.13387 7.66613,-2.13391c1.21185,0.00004 2.14046,1.12627 1.8836,2.33149c0,0 -0.68493,3.3721 -2.09435,7.2578c0.02633,-0.07899 0.03951,-0.15802 0.03951,-0.23705c0,-4.00437 -3.26666,-7.25784 -7.25784,-7.25785z" fill="#1c6fd2"></path><path d="M13.74282,46.71205c-0.07903,0.02637 -0.16465,0.04615 -0.24368,0.04615c-4.00433,-0.00004 -7.2578,-3.2667 -7.25784,-7.25785c0,-0.07903 0.01978,-0.16465 0.04615,-0.24368c5.55199,-15.24672 17.59785,-27.37162 32.97633,-32.97635c0.07899,-0.02633 0.15802,-0.03951 0.23705,-0.03951c3.99118,0 7.25784,3.25348 7.25784,7.25785c0,0.07903 -0.01318,0.15806 -0.03951,0.23705c-5.45322,14.96353 -17.31473,27.27285 -32.97633,32.97635z" fill="#ffc536"></path><path d="M35.16672,22.44027c0,5.70396 -7.03177,12.7264 -12.72639,12.7264c-3.22722,0 -5.45633,-2.51062 -4.29861,-6.7557c1.2226,-4.48249 5.78454,-9.04609 10.2693,-10.26931c4.24332,-1.1572 6.75569,1.06815 6.75569,4.29861z" fill="#f34624"></path><path d="M27.67846,33.50853c-1.83365,1.09408 -3.65333,1.64679 -5.22415,1.64679c-4.47515,-0.00001 -6.16377,-4.47202 -2.96354,-9.83449c0.23025,-0.38742 0.76795,-0.46042 1.09408,-0.13621l7.22982,7.22983c0.32106,0.32289 0.25453,0.86181 -0.13621,1.09408z" fill="#1c6fd2"></path><path d="M18.52883,39.75404l-4.85273,3.08797c-0.42464,0.27042 -0.89998,0.40281 -1.37181,0.40281c-1.95743,0 -3.25389,-2.18511 -2.14785,-3.92247l3.08797,-4.85273c0.14929,-0.23521 0.44858,-0.32605 0.70351,-0.21338c0.25422,0.11267 0.38873,0.39506 0.31549,0.66337c-0.8178,3.00066 0.81055,4.63443 3.81543,3.81543c0.26901,-0.07324 0.5507,0.06126 0.66337,0.31549c0.11267,0.25492 0.02183,0.55421 -0.21338,0.70351z" fill="#f34624"></path><path d="M34.46737,13.24259l4.85324,-3.08852c0.42468,-0.27047 0.90007,-0.4029 1.37192,-0.40293c1.95756,-0.00014 3.25397,2.185 2.14777,3.92256l-3.08846,4.85326c-0.14931,0.23523 -0.44863,0.32611 -0.70357,0.21344c-0.25423,-0.11266 -0.38873,-0.39506 -0.31547,-0.66339c0.81803,-3.0009 -0.81033,-4.63466 -3.81546,-3.81539c-0.26904,0.07326 -0.55073,-0.06123 -0.66339,-0.31546c-0.11267,-0.25493 -0.0218,-0.55425 0.21343,-0.70357z" fill="#f34624"></path><path d="M14.069,10.84782l0,2.52258c0,0.38507 -0.31347,0.69853 -0.69853,0.69853l-2.52258,0c-1.33682,0 -2.59418,-0.52128 -3.53895,-1.46605l-4.18334,-4.18335c-0.8275,-0.8275 -0.84042,-2.17908 0,-3.01767l2.27634,-2.27634c0.82374,-0.82558 2.17523,-0.84243 3.01766,0l4.18334,4.18335c0.94477,0.94477 1.46605,2.20213 1.46605,3.53895z" fill="#dbdbdb"></path><path d="M49.8744,47.59802l-2.27634,2.27634c-0.83344,0.83344 -2.18274,0.83492 -3.01766,0l-4.18335,-4.18335c-0.94477,-0.94477 -1.46605,-2.20213 -1.46605,-3.53894l0,-2.52258c0,-0.38507 0.31347,-0.69853 0.69853,-0.69853l2.52258,0c1.33682,0 2.59418,0.52128 3.53894,1.46605l4.18335,4.18335c0.8275,0.8275 0.84042,2.17908 0,3.01767z" fill="#dbdbdb"></path><path d="M44.00821,43.02026c-0.86705,-0.86706 -33.16154,-33.16158 -34.02851,-34.02854c-0.27286,-0.27269 -0.71504,-0.27269 -0.9879,0c-0.27278,0.27286 -0.27278,0.71504 0,0.9879l34.02851,34.02854c0.27295,0.27277 0.71504,0.27269 0.9879,0c0.27278,-0.27278 0.27278,-0.71503 0,-0.9879z" fill="#1c6fd2"></path></g></g>
</svg>