<svg xmlns="http://www.w3.org/2000/svg" x="0px" y="0px" viewBox="0,0,256,256">
<g fill="#1f5ede" fill-rule="nonzero" stroke="none" stroke-width="1" stroke-linecap="butt" stroke-linejoin="miter" stroke-miterlimit="10" stroke-dasharray="" stroke-dashoffset="0" font-family="none" font-weight="none" font-size="none" text-anchor="none" style="mix-blend-mode: normal"><g transform="scale(5.33333,5.33333)"><path d="M34.91992,5.92773c-1.83622,0 -3.67224,0.69568 -5.06445,2.08789l-5.0957,5.0957c-2.40892,2.40892 -2.6049,6.08605 -0.8457,8.85352l-1.95117,1.95117c-2.76749,-1.7594 -6.44451,-1.56526 -8.85352,0.84375l-5.0957,5.0957c-2.78442,2.78442 -2.78442,7.34643 0,10.13086c2.78514,2.78388 7.34659,2.78426 10.13086,0l5.0957,-5.0957c2.40901,-2.40901 2.60315,-6.08603 0.84375,-8.85352l1.95117,-1.95117c2.76776,1.75888 6.44473,1.56308 8.85352,-0.8457l5.0957,-5.0957c2.78442,-2.78443 2.78442,-7.34448 0,-10.12891c-1.39221,-1.39221 -3.22823,-2.08789 -5.06445,-2.08789zM34.91992,8.9082c1.06228,0 2.12457,0.40973 2.94336,1.22852c1.63757,1.63758 1.63757,4.24914 0,5.88672l-5.0957,5.0957c-1.26063,1.26063 -3.08871,1.52983 -4.61523,0.84961l3.27734,-3.27734c0.39185,-0.37623 0.54969,-0.9349 0.41265,-1.46055c-0.13704,-0.52565 -0.54754,-0.93616 -1.07319,-1.07319c-0.52565,-0.13704 -1.08432,0.0208 -1.46055,0.41265l-3.27734,3.27734c-0.68002,-1.52626 -0.4109,-3.35473 0.84961,-4.61523l5.0957,-5.0957c0.81879,-0.81879 1.88108,-1.22852 2.94336,-1.22852zM18.17578,25.6543c0.57258,0 1.13547,0.14102 1.66992,0.37891l-3.27539,3.27539c-0.39185,0.37623 -0.54969,0.9349 -0.41265,1.46055c0.13704,0.52565 0.54754,0.93616 1.07319,1.07319c0.52565,0.13704 1.08432,-0.0208 1.46055,-0.41265l3.27539,-3.27539c0.67922,1.52598 0.41247,3.35316 -0.84766,4.61328l-5.09766,5.09766c-1.63774,1.63773 -4.24785,1.63622 -5.88672,-0.00195c-1.63637,-1.63765 -1.63717,-4.24759 0,-5.88477l5.09766,-5.09766c0.81879,-0.81879 1.88108,-1.22656 2.94336,-1.22656z"></path></g></g>
</svg>