<svg xmlns="http://www.w3.org/2000/svg" x="0px" y="0px" viewBox="0,0,256,256">
<g fill="none" fill-rule="nonzero" stroke="none" stroke-width="1" stroke-linecap="butt" stroke-linejoin="miter" stroke-miterlimit="10" stroke-dasharray="" stroke-dashoffset="0" font-family="none" font-weight="none" font-size="none" text-anchor="none" style="mix-blend-mode: normal"><g transform="scale(5.33333,5.33333)"><path d="M24,25c-6.5,0 -14,-1.5 -17,-5.5v12.5l0.2,1c1.1,3.9 7.6,7 16.8,7c9.2,0 15.7,-3.1 16.8,-7l0.2,-1v-12.5c-2.7,3 -8.6,5.5 -17,5.5z" fill="#d3af7a"></path><path d="M42,14c0,4.4 -8,8 -18,8c-10,0 -18,-3.6 -18,-8c0,-4.4 8.1,-8 18,-8c9.9,0 18,3.6 18,8z" fill="#455a64"></path><path d="M41,16.5c0,4.1 -7.6,7.5 -17,7.5c-9.4,0 -17,-3.4 -17,-7.5c0,-4.1 7.6,-7.5 17,-7.5c9.4,0 17,3.4 17,7.5z" fill="#eceff1"></path><path d="M24,22c-10,0 -18,-3.6 -18,-8c0,0 0,1.1 0,2c0,0.3 0,0.6 0,0.8c0,0.1 0,0.2 0,0.2c0,0.5 0.2,1 0.2,1c1.1,3.9 8.6,7 17.8,7c9.2,0 16.7,-3.1 17.8,-7c0,0 0.2,-0.5 0.2,-1c0,-0.1 0,-0.1 0,-0.2c0,-0.2 0,-0.5 0,-0.8c0,-0.9 0,-2 0,-2c0,4.4 -8,8 -18,8zM41,30.4v1.6l-0.2,1c-0.9,3.3 -5.7,6 -12.7,6.8c-0.1,0 -0.2,0 -0.3,0c-0.3,0 -0.6,0.1 -0.9,0.1c-0.4,0 -0.7,0.1 -1.1,0.1c-0.1,0 -0.2,0 -0.3,0c-0.6,0 -1.1,0 -1.6,0c-0.5,0 -1,0 -1.6,0c-0.1,0 -0.2,0 -0.3,0c-0.3,0 -0.7,0 -1.1,-0.1c-0.3,0 -0.6,0 -0.9,-0.1c-0.1,0 -0.2,0 -0.3,0c-6.8,-0.8 -11.6,-3.5 -12.5,-6.8l-0.2,-1v-1.6c-0.5,0.4 -1,1.1 -1,1.6c0,0 0,2.4 0,3c0,0.6 0.2,1 0.2,1c1.1,3.9 8.6,7 17.8,7c9.2,0 16.7,-3.1 17.8,-7c0,0 0.2,-0.4 0.2,-1c0,-0.6 0,-3 0,-3c0,-0.5 -0.5,-1.2 -1,-1.6z" fill="#546e7a"></path><path d="M23,24h2v19h-2zM37,40l-2,1v-18l2,-1zM13,41l-2,-1v-18l2,1z" fill="#37474f"></path><path d="M26,24.9c0,0.6 -1,1.1 -1,1.1h-2c0,0 -1,-0.5 -1,-1v-3c0.8,0.1 3.6,0.1 4,0zM22.1,40c0,-0.6 0.9,-1 0.9,-1h2c0,0 1,0.4 1,1v3c-0.5,0.1 -3.3,0.1 -4,0zM38,22.4c0,0.6 -1,1.6 -1,1.6l-2,1c0,0 -1,-0.7 -1,-1.2v-3.1c0.5,-0.2 3,-1 4,-1.6zM10,22.4c0,0.6 1,1.6 1,1.6l2,1c0,0 1,-0.7 1,-1.2v-3.1c-0.5,-0.2 -3,-1 -4,-1.6zM34,38.5c0,-0.6 1,-1.5 1,-1.5l2,-1c0,0 1,0.4 1,0.6v3.4c-0.5,0.3 -3,1.4 -4,1.6zM14,38.5c0,-0.6 -1,-1.5 -1,-1.5l-2,-1c0,0 -1,0.4 -1,0.6v3.4c0.5,0.3 3,1.4 4,1.6z" fill="#37474f"></path><path d="M21,16.5c-0.6,0 -1.1,-0.3 -1.4,-0.9c-0.4,-0.7 0,-1.6 0.7,-2l19.1,-9c0.7,-0.4 1.6,0 2,0.7c0.4,0.7 0,1.6 -0.7,2l-19.1,9c-0.2,0.2 -0.4,0.2 -0.6,0.2z" fill="#a1887f"></path><path d="M24,15c0,1.7 -1.3,3 -3,3c-1.7,0 -3,-1.3 -3,-3c0,-1.7 1.3,-3 3,-3c1.7,0 3,1.3 3,3z" fill="#795548"></path></g></g>
</svg>