<svg xmlns="http://www.w3.org/2000/svg" x="0px" y="0px" viewBox="0,0,256,256">
<g fill="none" fill-rule="nonzero" stroke="none" stroke-width="1" stroke-linecap="butt" stroke-linejoin="miter" stroke-miterlimit="10" stroke-dasharray="" stroke-dashoffset="0" font-family="none" font-weight="none" font-size="none" text-anchor="none" style="mix-blend-mode: normal"><g transform="scale(5.33333,5.33333)"><path d="M15,4h5v7h-5zM28,4h5v7h-5zM40,38.001c0,5 -5,4.999 -5,4.999c0,0 -5,0.999 -11,1c-6,0.001 -11,-1 -11,-1c0,0 -5,0.001 -5,-4.999c0,-5 3,-23.001 4,-25.001c1,-2 2,-2 2,-2h20c0,0 1,0 2,2c1,2 4,20.001 4,25.001z" fill="#7c5f3a"></path><path d="M35,19c0,1.104 -0.896,2 -2,2h-18c-1.104,0 -2,-0.896 -2,-2v-9h22zM24,44c3.349,0 6.694,-0.312 9,-0.587v-12.413c0,-1.104 -0.896,-2 -2,-2h-14c-1.104,0 -2,0.896 -2,2v12.331c2.003,0.292 5.31,0.669 9,0.669zM41,40c0,2 -3,3 -6,3v-12c0,-1.104 0.896,-2 2,-2l2,0.001c1.104,0 2,8.999 2,10.999zM7,40c0,2 3,3 6,3v-12c0,-1.104 -0.896,-2 -2,-2l-2,0.001c-1.104,0 -2,8.999 -2,10.999z" fill="#b39e85"></path><g fill="#ffc107"><path d="M24.223,34h-0.445c-0.982,0 -1.778,0.896 -1.778,2v1c0,1.104 0.796,2 1.777,2h0.445c0.982,0 1.778,-0.896 1.778,-2v-1c0,-1.104 -0.796,-2 -1.777,-2zM18.223,18h-0.445c-0.982,0 -1.778,0.896 -1.778,2v1c0,1.104 0.796,2 1.777,2h0.445c0.982,0 1.778,-0.896 1.778,-2v-1c0,-1.104 -0.796,-2 -1.777,-2zM30.223,18h-0.445c-0.982,0 -1.778,0.896 -1.778,2v1c0,1.104 0.796,2 1.777,2h0.445c0.982,0 1.778,-0.896 1.778,-2v-1c0,-1.104 -0.796,-2 -1.777,-2z"></path></g><g fill="#56300d"><path d="M23.777,34h0.445c0.28,0 0.542,0.079 0.777,0.209v-5.209h-2v5.209c0.237,-0.13 0.498,-0.209 0.778,-0.209zM23,36h2v5h-2zM17.777,18h0.445c0.28,0 0.542,0.08 0.777,0.209v-8.209h-2v8.209c0.237,-0.129 0.498,-0.209 0.778,-0.209zM29.777,18h0.445c0.28,0 0.542,0.08 0.777,0.209v-8.209h-2v8.209c0.236,-0.129 0.498,-0.209 0.778,-0.209zM17,20h2v5h-2zM29,20h2v5h-2zM21,10v-0.309c0,-0.799 1.232,-1.691 3,-1.691c1.768,0 3,0.892 3,1.691v0.309h2v-0.309c0,-2.07 -2.196,-3.691 -5,-3.691c-2.804,0 -5,1.621 -5,3.691v0.309z"></path></g></g></g>
</svg>